<svg xmlns="http://www.w3.org/2000/svg" xmlns:xlink="http://www.w3.org/1999/xlink" width="200" zoomAndPan="magnify" viewBox="0 0 150 149.999998" height="200" preserveAspectRatio="xMidYMid meet" version="1.0"><defs><clipPath id="3b059431d0"><path d="M 75 0 C 33.578125 0 0 33.578125 0 75 C 0 116.421875 33.578125 150 75 150 C 116.421875 150 150 116.421875 150 75 C 150 33.578125 116.421875 0 75 0 " clip-rule="nonzero"/></clipPath></defs><g clip-path="url(#3b059431d0)"><rect x="-15" width="180" fill="#ffbd59" y="-15" height="179.999997" fill-opacity="1"/></g><path fill="#9f592e" d="M 74.996094 1.953125 C 34.652344 1.953125 1.953125 34.652344 1.953125 74.996094 C 1.953125 115.339844 34.652344 148.042969 74.996094 148.042969 C 115.339844 148.042969 148.042969 115.339844 148.042969 74.996094 C 148.042969 34.652344 115.339844 1.953125 74.996094 1.953125 Z M 74.996094 139.277344 C 73.945312 139.277344 72.894531 139.25 71.84375 139.199219 C 70.792969 139.148438 69.742188 139.070312 68.695312 138.96875 C 67.648438 138.867188 66.605469 138.738281 65.5625 138.582031 C 64.523438 138.429688 63.488281 138.25 62.453125 138.042969 C 61.421875 137.839844 60.398438 137.609375 59.375 137.351562 C 58.355469 137.097656 57.34375 136.816406 56.335938 136.511719 C 55.328125 136.207031 54.328125 135.875 53.339844 135.523438 C 52.347656 135.167969 51.367188 134.789062 50.394531 134.386719 C 49.421875 133.984375 48.460938 133.558594 47.511719 133.109375 C 46.558594 132.660156 45.621094 132.1875 44.691406 131.691406 C 43.765625 131.195312 42.847656 130.675781 41.945312 130.136719 C 41.042969 129.59375 40.15625 129.03125 39.28125 128.449219 C 38.40625 127.863281 37.546875 127.257812 36.703125 126.632812 C 35.855469 126.003906 35.027344 125.359375 34.214844 124.691406 C 33.402344 124.023438 32.605469 123.335938 31.824219 122.628906 C 31.046875 121.921875 30.285156 121.199219 29.539062 120.453125 C 28.796875 119.710938 28.070312 118.949219 27.363281 118.167969 C 26.65625 117.390625 25.96875 116.59375 25.300781 115.78125 C 24.636719 114.96875 23.988281 114.136719 23.359375 113.292969 C 22.734375 112.449219 22.128906 111.589844 21.542969 110.714844 C 20.960938 109.839844 20.398438 108.949219 19.855469 108.046875 C 19.316406 107.144531 18.796875 106.230469 18.300781 105.304688 C 17.804688 104.375 17.332031 103.4375 16.882812 102.484375 C 16.429688 101.535156 16.003906 100.574219 15.601562 99.601562 C 15.199219 98.628906 14.820312 97.648438 14.464844 96.65625 C 14.113281 95.667969 13.78125 94.667969 13.476562 93.660156 C 13.171875 92.65625 12.890625 91.640625 12.636719 90.621094 C 12.378906 89.601562 12.148438 88.574219 11.945312 87.542969 C 11.738281 86.511719 11.558594 85.472656 11.402344 84.433594 C 11.25 83.394531 11.121094 82.347656 11.015625 81.300781 C 10.914062 80.253906 10.835938 79.207031 10.785156 78.15625 C 10.734375 77.105469 10.707031 76.054688 10.707031 75 C 10.707031 73.949219 10.734375 72.898438 10.785156 71.847656 C 10.835938 70.796875 10.914062 69.746094 11.015625 68.699219 C 11.121094 67.652344 11.246094 66.609375 11.402344 65.570312 C 11.554688 64.527344 11.734375 63.492188 11.941406 62.460938 C 12.148438 61.429688 12.375 60.402344 12.632812 59.382812 C 12.886719 58.359375 13.167969 57.347656 13.472656 56.339844 C 13.777344 55.332031 14.109375 54.335938 14.464844 53.34375 C 14.816406 52.355469 15.195312 51.371094 15.597656 50.402344 C 16 49.429688 16.425781 48.46875 16.878906 47.515625 C 17.328125 46.566406 17.800781 45.625 18.296875 44.699219 C 18.792969 43.769531 19.308594 42.855469 19.851562 41.953125 C 20.390625 41.050781 20.953125 40.160156 21.539062 39.285156 C 22.121094 38.410156 22.726562 37.550781 23.355469 36.707031 C 23.980469 35.863281 24.628906 35.03125 25.296875 34.21875 C 25.964844 33.40625 26.648438 32.609375 27.355469 31.832031 C 28.0625 31.050781 28.789062 30.289062 29.53125 29.546875 C 30.277344 28.800781 31.039062 28.074219 31.816406 27.371094 C 32.597656 26.664062 33.394531 25.976562 34.207031 25.308594 C 35.019531 24.640625 35.847656 23.992188 36.691406 23.367188 C 37.539062 22.742188 38.398438 22.132812 39.273438 21.550781 C 40.148438 20.964844 41.035156 20.402344 41.9375 19.863281 C 42.839844 19.320312 43.753906 18.800781 44.683594 18.308594 C 45.609375 17.8125 46.550781 17.335938 47.5 16.886719 C 48.453125 16.4375 49.414062 16.011719 50.386719 15.609375 C 51.359375 15.207031 52.339844 14.828125 53.328125 14.472656 C 54.320312 14.117188 55.320312 13.789062 56.324219 13.484375 C 57.332031 13.179688 58.347656 12.898438 59.367188 12.640625 C 60.386719 12.386719 61.414062 12.15625 62.445312 11.949219 C 63.476562 11.746094 64.511719 11.566406 65.554688 11.410156 C 66.59375 11.257812 67.636719 11.128906 68.683594 11.023438 C 69.730469 10.921875 70.78125 10.84375 71.832031 10.792969 C 72.882812 10.742188 73.933594 10.714844 74.984375 10.714844 C 76.039062 10.714844 77.089844 10.742188 78.140625 10.792969 C 79.191406 10.84375 80.238281 10.921875 81.285156 11.023438 C 82.332031 11.128906 83.378906 11.257812 84.417969 11.410156 C 85.457031 11.566406 86.496094 11.746094 87.527344 11.949219 C 88.558594 12.15625 89.585938 12.386719 90.605469 12.640625 C 91.625 12.894531 92.640625 13.175781 93.644531 13.480469 C 94.652344 13.789062 95.652344 14.117188 96.640625 14.472656 C 97.632812 14.828125 98.613281 15.203125 99.585938 15.605469 C 100.558594 16.011719 101.519531 16.4375 102.46875 16.886719 C 103.421875 17.335938 104.359375 17.808594 105.289062 18.304688 C 106.214844 18.800781 107.132812 19.320312 108.035156 19.859375 C 108.9375 20.398438 109.824219 20.960938 110.699219 21.546875 C 111.574219 22.132812 112.433594 22.738281 113.28125 23.363281 C 114.125 23.992188 114.953125 24.636719 115.765625 25.304688 C 116.582031 25.972656 117.375 26.660156 118.15625 27.367188 C 118.9375 28.074219 119.699219 28.796875 120.441406 29.542969 C 121.183594 30.285156 121.910156 31.046875 122.617188 31.828125 C 123.324219 32.605469 124.011719 33.402344 124.679688 34.214844 C 125.34375 35.027344 125.992188 35.859375 126.617188 36.703125 C 127.246094 37.546875 127.851562 38.40625 128.4375 39.28125 C 129.019531 40.15625 129.582031 41.046875 130.125 41.949219 C 130.664062 42.851562 131.183594 43.765625 131.679688 44.695312 C 132.175781 45.621094 132.648438 46.5625 133.097656 47.511719 C 133.546875 48.460938 133.972656 49.425781 134.375 50.394531 C 134.777344 51.367188 135.15625 52.347656 135.511719 53.339844 C 135.867188 54.332031 136.195312 55.328125 136.5 56.335938 C 136.808594 57.34375 137.085938 58.355469 137.34375 59.375 C 137.597656 60.398438 137.828125 61.421875 138.035156 62.457031 C 138.238281 63.488281 138.417969 64.523438 138.574219 65.5625 C 138.726562 66.605469 138.855469 67.648438 138.960938 68.695312 C 139.0625 69.742188 139.140625 70.792969 139.191406 71.84375 C 139.242188 72.894531 139.269531 73.945312 139.269531 74.996094 C 139.269531 76.046875 139.242188 77.097656 139.191406 78.148438 C 139.140625 79.199219 139.0625 80.25 138.960938 81.296875 C 138.855469 82.34375 138.726562 83.386719 138.574219 84.429688 C 138.417969 85.46875 138.238281 86.503906 138.035156 87.535156 C 137.828125 88.570312 137.597656 89.59375 137.34375 90.617188 C 137.085938 91.636719 136.808594 92.648438 136.5 93.65625 C 136.195312 94.664062 135.867188 95.660156 135.511719 96.652344 C 135.15625 97.640625 134.777344 98.625 134.375 99.59375 C 133.972656 100.566406 133.546875 101.527344 133.097656 102.480469 C 132.648438 103.429688 132.175781 104.371094 131.679688 105.296875 C 131.183594 106.226562 130.664062 107.140625 130.125 108.042969 C 129.582031 108.945312 129.019531 109.835938 128.4375 110.707031 C 127.851562 111.582031 127.246094 112.445312 126.621094 113.289062 C 125.992188 114.132812 125.347656 114.960938 124.679688 115.777344 C 124.011719 116.589844 123.324219 117.386719 122.617188 118.164062 C 121.910156 118.945312 121.1875 119.707031 120.441406 120.449219 C 119.699219 121.195312 118.9375 121.917969 118.15625 122.625 C 117.378906 123.332031 116.582031 124.019531 115.769531 124.6875 C 114.953125 125.355469 114.125 126 113.28125 126.628906 C 112.4375 127.253906 111.574219 127.859375 110.703125 128.445312 C 109.828125 129.027344 108.9375 129.589844 108.035156 130.132812 C 107.132812 130.671875 106.21875 131.191406 105.289062 131.6875 C 104.363281 132.183594 103.421875 132.65625 102.472656 133.105469 C 101.519531 133.554688 100.558594 133.980469 99.585938 134.382812 C 98.617188 134.785156 97.632812 135.164062 96.644531 135.519531 C 95.652344 135.875 94.65625 136.203125 93.648438 136.507812 C 92.640625 136.816406 91.628906 137.09375 90.609375 137.351562 C 89.585938 137.605469 88.5625 137.835938 87.527344 138.042969 C 86.496094 138.246094 85.460938 138.425781 84.421875 138.582031 C 83.378906 138.734375 82.335938 138.863281 81.289062 138.96875 C 80.242188 139.070312 79.191406 139.148438 78.144531 139.199219 C 77.09375 139.25 76.039062 139.277344 74.988281 139.277344 Z M 74.996094 139.277344 " fill-opacity="1" fill-rule="nonzero"/><path fill="#9f592e" d="M 74.996094 149.996094 C 33.644531 149.996094 0 116.347656 0 74.996094 C 0 33.644531 33.644531 0 74.996094 0 C 116.347656 0 149.996094 33.644531 149.996094 74.996094 C 149.996094 116.347656 116.347656 149.996094 74.996094 149.996094 Z M 74.996094 3.84375 C 35.761719 3.84375 3.84375 35.761719 3.84375 74.996094 C 3.84375 114.230469 35.761719 146.152344 74.996094 146.152344 C 114.230469 146.152344 146.152344 114.230469 146.152344 74.996094 C 146.152344 35.761719 114.230469 3.84375 74.996094 3.84375 Z M 74.996094 3.84375 " fill-opacity="1" fill-rule="nonzero"/><path fill="#9f592e" d="M 74.996094 141.199219 C 38.484375 141.199219 8.796875 111.503906 8.796875 74.996094 C 8.796875 38.488281 38.492188 8.796875 74.996094 8.796875 C 111.5 8.796875 141.199219 38.492188 141.199219 74.996094 C 141.199219 111.5 111.503906 141.199219 74.996094 141.199219 Z M 74.996094 12.640625 C 40.609375 12.640625 12.640625 40.609375 12.640625 74.996094 C 12.640625 109.382812 40.609375 137.355469 74.996094 137.355469 C 109.382812 137.355469 137.355469 109.382812 137.355469 74.996094 C 137.355469 40.609375 109.382812 12.640625 74.996094 12.640625 Z M 74.996094 12.640625 " fill-opacity="1" fill-rule="nonzero"/></svg>